<?xml version="1.0" encoding="UTF-8" standalone="no"?>
<!DOCTYPE svg PUBLIC "-//W3C//DTD SVG 1.1//EN" "http://www.w3.org/Graphics/SVG/1.1/DTD/svg11.dtd">
<svg version="1.1" xmlns="http://www.w3.org/2000/svg" xmlns:xlink="http://www.w3.org/1999/xlink" preserveAspectRatio="xMidYMid meet" viewBox="0.4890000000000001 0.30299999999999994 35.723000000000006 35.722" width="31.72" height="31.72"><defs><path d="M24.87 12.41L27.08 10.2L29.29 7.99L29.39 7.89L32.91 11.41L33.21 1.3L23.1 1.61L26.62 5.13L26.53 5.23L24.32 7.44L22.11 9.65L19.9 11.86L19.56 12.19L22.32 14.95L22.66 14.62L24.87 12.41Z" id="bzbOjgMnl"></path><path d="M10.39 7.44L8.18 5.23L8.08 5.13L11.6 1.61L1.49 1.3L1.8 11.41L5.32 7.89L5.41 7.99L7.62 10.2L9.83 12.41L12.04 14.62L12.38 14.95L15.14 12.19L14.81 11.86L12.6 9.65L10.39 7.44Z" id="h2gq5mcXT"></path><path d="M29.29 26.34L27.08 24.13L24.87 21.92L22.66 19.71L22.32 19.38L19.56 22.14L19.9 22.47L22.11 24.68L24.32 26.89L26.53 29.1L26.62 29.2L23.1 32.72L33.21 33.03L32.91 22.92L29.39 26.44L29.29 26.34Z" id="c1rmfzmKPK"></path><path d="M9.83 21.92L7.62 24.13L5.41 26.34L5.32 26.44L1.8 22.92L1.49 33.03L11.6 32.72L8.08 29.2L8.18 29.1L10.39 26.89L12.6 24.68L14.81 22.47L15.14 22.14L12.38 19.38L12.04 19.71L9.83 21.92Z" id="f3IXEJCxod"></path></defs><g><g><use xlink:href="#bzbOjgMnl" opacity="1" fill="#ffffff" fill-opacity="1"></use><g><use xlink:href="#bzbOjgMnl" opacity="1" fill-opacity="0" stroke="#000000" stroke-width="1" stroke-opacity="0"></use></g></g><g><use xlink:href="#h2gq5mcXT" opacity="1" fill="#ffffff" fill-opacity="1"></use><g><use xlink:href="#h2gq5mcXT" opacity="1" fill-opacity="0" stroke="#000000" stroke-width="1" stroke-opacity="0"></use></g></g><g><use xlink:href="#c1rmfzmKPK" opacity="1" fill="#ffffff" fill-opacity="1"></use><g><use xlink:href="#c1rmfzmKPK" opacity="1" fill-opacity="0" stroke="#000000" stroke-width="1" stroke-opacity="0"></use></g></g><g><use xlink:href="#f3IXEJCxod" opacity="1" fill="#ffffff" fill-opacity="1"></use><g><use xlink:href="#f3IXEJCxod" opacity="1" fill-opacity="0" stroke="#000000" stroke-width="1" stroke-opacity="0"></use></g></g></g></svg>