<?xml version="1.0" encoding="UTF-8" standalone="no"?>
<!-- Generator: Adobe Illustrator 23.0.1, SVG Export Plug-In . SVG Version: 6.00 Build 0)  -->

<svg
   xmlns:dc="http://purl.org/dc/elements/1.1/"
   xmlns:cc="http://creativecommons.org/ns#"
   xmlns:rdf="http://www.w3.org/1999/02/22-rdf-syntax-ns#"
   xmlns:svg="http://www.w3.org/2000/svg"
   xmlns="http://www.w3.org/2000/svg"
   xmlns:xlink="http://www.w3.org/1999/xlink"
   xmlns:sodipodi="http://sodipodi.sourceforge.net/DTD/sodipodi-0.dtd"
   xmlns:inkscape="http://www.inkscape.org/namespaces/inkscape"
   version="1.1"
   id="Ebene_1"
   x="0px"
   y="0px"
   viewBox="0 0 8192 8192"
   style="enable-background:new 0 0 8192 8192;"
   xml:space="preserve"
   sodipodi:docname="logo_final_rand.svg"
   inkscape:version="0.92.4 (5da689c313, 2019-01-14)"><metadata
   id="metadata21"><rdf:RDF><cc:Work
       rdf:about=""><dc:format>image/svg+xml</dc:format><dc:type
         rdf:resource="http://purl.org/dc/dcmitype/StillImage" /></cc:Work></rdf:RDF></metadata><defs
   id="defs19" /><sodipodi:namedview
   pagecolor="#ffffff"
   bordercolor="#666666"
   borderopacity="1"
   objecttolerance="10"
   gridtolerance="10"
   guidetolerance="10"
   inkscape:pageopacity="0"
   inkscape:pageshadow="2"
   inkscape:window-width="2560"
   inkscape:window-height="1027"
   id="namedview17"
   showgrid="false"
   inkscape:zoom="1.3037281"
   inkscape:cx="3878.7702"
   inkscape:cy="4135.5203"
   inkscape:window-x="-8"
   inkscape:window-y="-8"
   inkscape:window-maximized="1"
   inkscape:current-layer="Ebene_1" />
<style
   type="text/css"
   id="style2">
	.st0{display:none;fill:#212E41;}
	.st1{fill:#4787B5;stroke:#4D4D4D;stroke-width:0.5;stroke-miterlimit:10;}
	.st2{fill:#FFFFFF;stroke:#4787B5;stroke-miterlimit:10;}
</style>
<rect
   x="3811.3"
   y="3811.3"
   class="st0"
   width="568.9"
   height="568.9"
   id="rect4" />
<path
   class="st1"
   d="M4104.4,4017.4c-6.7,6.7-12.3,13.8-16.9,21.5v108.2c0,21.9-5.4,38.6-16.1,50.2c-10.8,11.6-25.3,17.4-43.7,17.4  c-18.4,0-33-5.8-43.7-17.4c-10.8-11.6-16.1-28.4-16.1-50.2V3914h-76v231.6c0,42.3,13.3,76.1,39.8,101.2c26.5,25.2,58.6,37.7,96,37.7  c37.5,0,69.5-12.6,96-37.7c26.5-25.2,39.8-58.9,39.8-101.2v-158.4C4140.8,3990.6,4121.3,4000.6,4104.4,4017.4z"
   id="path6"
   style="fill:#000000" />
<g
   id="g12"
   style="stroke:none;fill:#000000;fill-opacity:1">
	<path
   class="st2"
   d="M4158.2,3979.3c9.4-2,18.1-2,23.6-2.1c23.7-0.2,44.7,5.6,63.1,17.2l39.2-59.3c-30.2-18.4-64.8-27.7-104-27.7   c-52.4,0-97.5,18-135.3,54.1c-37.8,36.1-56.7,80.8-56.7,134.3c0,42.1,11.7,78.8,35.2,110.1c1.4,0.1,2.8,0.1,4.3,0.1   c16,0,28.2-4.8,37.4-14.6c8-8.6,12.5-21,13.6-36.9c-9.6-17.3-14.4-36.8-14.4-58.7c0-22.1,4.9-41.8,14.7-59.1v-0.2l1.2-2.1   c2-3.3,4.2-6.6,6.6-9.8c0,0,0,0,0,0c1.1-1.5,2.2-2.9,3.4-4.3c0.1-0.1,0.2-0.2,0.3-0.3c1.1-1.3,2.3-2.7,3.4-4   c0.3-0.3,0.5-0.6,0.8-0.9c1.2-1.3,2.4-2.6,3.7-3.9c1.3-1.3,2.7-2.6,4.1-3.9c0.3-0.2,0.5-0.5,0.8-0.7c1.2-1.1,2.5-2.2,3.7-3.2   c0.1-0.1,0.2-0.2,0.3-0.3C4122.2,3990.7,4144.5,3982.3,4158.2,3979.3z"
   id="path8"
   style="stroke:none;fill:#000000;fill-opacity:1" />
	<path
   class="st2"
   d="M4250.9,4193.2c-19.8,14.2-42.8,21.3-69.1,21.3c-8,0-15.7-0.7-23-2c-7,15.3-16.7,28.8-29.1,40.6   c-7.1,6.7-14.6,12.6-22.5,17.7c22.5,9,46.9,13.5,73.1,13.5c46.2,0,86.1-12.9,119.9-38.5L4250.9,4193.2z"
   id="path10"
   style="stroke:none;fill:#000000;fill-opacity:1" />
</g>
<image
   sodipodi:absref="C:\Users\maxfo\Documents\mission-uncuttable\documentation\poster\4194C3F6.jpeg"
   xlink:href="4194C3F6.jpeg"
   style="display:none;overflow:visible;enable-background:new    ;"
   width="1601"
   height="901"
   transform="matrix(0.5683 0 0 0.5683 3772.7507 4165.4238)"
   id="image14">
</image>
</svg>