<?xml version="1.0" encoding="UTF-8" standalone="no"?>
<!-- Generator: Adobe Illustrator 23.0.1, SVG Export Plug-In . SVG Version: 6.00 Build 0)  -->

<svg
   xmlns:dc="http://purl.org/dc/elements/1.1/"
   xmlns:cc="http://creativecommons.org/ns#"
   xmlns:rdf="http://www.w3.org/1999/02/22-rdf-syntax-ns#"
   xmlns:svg="http://www.w3.org/2000/svg"
   xmlns="http://www.w3.org/2000/svg"
   xmlns:xlink="http://www.w3.org/1999/xlink"
   xmlns:sodipodi="http://sodipodi.sourceforge.net/DTD/sodipodi-0.dtd"
   xmlns:inkscape="http://www.inkscape.org/namespaces/inkscape"
   version="1.1"
   id="Logo"
   x="0px"
   y="0px"
   viewBox="0 0 1000 1000"
   style="enable-background:new 0 0 1000 1000;"
   xml:space="preserve"
   sodipodi:docname="logo neu_mit Schrift_blau_rand.svg"
   inkscape:version="0.92.4 (5da689c313, 2019-01-14)"><metadata
   id="metadata36"><rdf:RDF><cc:Work
       rdf:about=""><dc:format>image/svg+xml</dc:format><dc:type
         rdf:resource="http://purl.org/dc/dcmitype/StillImage" /></cc:Work></rdf:RDF></metadata><defs
   id="defs34" /><sodipodi:namedview
   pagecolor="#ffffff"
   bordercolor="#666666"
   borderopacity="1"
   objecttolerance="10"
   gridtolerance="10"
   guidetolerance="10"
   inkscape:pageopacity="0"
   inkscape:pageshadow="2"
   inkscape:window-width="2560"
   inkscape:window-height="1027"
   id="namedview32"
   showgrid="false"
   inkscape:zoom="0.944"
   inkscape:cx="-80.73113"
   inkscape:cy="569.63267"
   inkscape:window-x="-8"
   inkscape:window-y="-8"
   inkscape:window-maximized="1"
   inkscape:current-layer="Logo" />
<style
   type="text/css"
   id="style2">
	.st0{display:none;fill:#212E41;}
	.st1{fill:#4787B5;}
	.st2{fill:#FFFFFF;stroke:#4787B5;stroke-miterlimit:10;}
	.st3{font-family:'CoreSansG-Bold';}
	.st4{font-size:133px;}
</style>
<rect
   id="hintergrund"
   y="0"
   class="st0"
   width="1000"
   height="1000" />


<g
   id="Schriten">
	<text
   class="st2 st3 st4"
   id="text11"
   style="font-style:normal;font-variant:normal;font-weight:normal;font-stretch:normal;font-size:133px;font-family:'Source Sans Pro';-inkscape-font-specification:'Source Sans Pro';fill:#000000;fill-opacity:1;stroke:none;stroke-miterlimit:10"
   x="275.96918"
   y="744.74298">Ubi  Cut</text>




</g>
<g
   id="Schere"
   style="fill:#000000">
	<g
   id="g20"
   style="fill:#000000">
		<g
   id="g18"
   style="fill:#000000">
			<g
   id="g16"
   style="fill:#000000">
				<path
   class="st1"
   d="M503.5,754.7c-2.2,0.3-4.4,0.6-6.6,0.8c-1.4,0.2-1.5,3.3-1.8,4.5c-1,3.8-1.9,7.6-2.8,11.4      c-1.2,5.1-1.2,5.1-5.9,7.2c-2.2,1-7.5,4.8-10,4.4c-2-0.3-2.1-3.1-3.2-4.6c-1.1-1.6-2.7-2.8-4.6-3.3c-3.8-1-7.6,1.2-9.5,4.3      c-5.3,8.5,3.4,17.1,11.8,11.2c4.9-3.5,10.9-9.9,17.8-6.3c1.9,1,1.6,1.8,1.1,4c-0.4,1.9-1.2,3.7-2,5.4c-1.7,3.6-4.6,6.2-7.6,8.8      c-4,3.6-7.6,9.6-3.5,14.6c2.8,3.3,7.6,3.2,10.8,0.5c3-2.5,4.7-7,3.5-10.8c-0.8-2.5-3.5-3.1-4.4-5.1c-1-2.3,2.1-4.5,3.4-6.1      c2.6-3.1,3.9-6.9,5.2-10.7c0.4-1.2,4.1-2.1,5.1-2.6c3.5-1.6,6.9-3.2,10.4-4.7c9.4-4.3,17.7-8,22.8-17.7      c-11.5,4.3-23.1,8.7-34.6,13C500.7,766.9,502.3,761,503.5,754.7z M477.1,814.3c-2.5-5.6,6.1-14,10.2-7.3      C491.4,813.1,480.6,822.1,477.1,814.3z M463,778.3c7.3-4.3,11.6,6.8,4.9,10.9C460.5,794,456,782.3,463,778.3z"
   id="path14"
   style="fill:#000000" />
			</g>
		</g>
	</g>
</g>
<rect
   x="495.9"
   y="651"
   class="st1"
   width="7.6"
   height="25.4"
   id="rect23"
   style="fill:#000000;fill-opacity:1" />
<image
   sodipodi:absref="C:\Users\maxfo\Documents\mission-uncuttable\documentation\poster\5FB6AC1C.jpeg"
   xlink:href="5FB6AC1C.jpeg"
   style="display:none;overflow:visible;enable-background:new    ;"
   width="1601"
   height="901"
   transform="matrix(0.9989 0 0 0.9989 -67.7115 622.5343)"
   id="image25">
</image>
<rect
   x="495.9"
   y="685"
   class="st1"
   width="7.6"
   height="25.4"
   id="rect27"
   style="fill:#000000" />
<rect
   x="495.9"
   y="719.3"
   class="st1"
   width="7.6"
   height="25.4"
   id="rect29"
   style="fill:#000000" />
</svg>